<svg xmlns="http://www.w3.org/2000/svg" version="1.1" xmlns:xlink="http://www.w3.org/1999/xlink" xmlns:svgjs="http://svgjs.dev/svgjs" width="1450" height="65" preserveAspectRatio="none" viewBox="0 0 1450 65"><g mask="url(&quot;#SvgjsMask1148&quot;)" fill="none"><path d="M 0,34 C 96.8,32.8 290.4,26 484,28 C 677.6,30 774.8,49 968,44 C 1161.2,39 1353.6,11.2 1450,3L1450 65L0 65z" fill="rgba(255, 255, 255, 0.37)"></path><path d="M 0,21 C 96.8,28 290.4,56.4 484,56 C 677.6,55.6 774.8,21.8 968,19 C 1161.2,16.2 1353.6,37.4 1450,42L1450 65L0 65z" fill="rgba(255, 255, 255, 0.34)"></path><path d="M 0,8 C 96.8,18.8 290.4,57.8 484,62 C 677.6,66.2 774.8,32.4 968,29 C 1161.2,25.6 1353.6,41.8 1450,45L1450 65L0 65z" fill="rgba(248, 249, 250, 1)"></path></g><defs><mask id="SvgjsMask1148"><rect width="1450" height="65" fill="#ffffff"></rect></mask></defs></svg>